<mxfile host="app.diagrams.net" modified="2020-08-02T07:10:37.555Z" agent="5.0 (Macintosh; Intel Mac OS X 10_15_5) AppleWebKit/537.36 (KHTML, like Gecko) Chrome/83.0.4103.116 Safari/537.36" etag="LLIdJ6zIJpxfRbr9Cgse" version="13.5.8" type="github">
  <diagram id="KMxO9OQKcOIsRkdzfyEN" name="Page-1">
    <mxGraphModel dx="1069" dy="791" grid="1" gridSize="10" guides="1" tooltips="1" connect="1" arrows="1" fold="1" page="1" pageScale="1" pageWidth="827" pageHeight="1169" math="0" shadow="0">
      <root>
        <mxCell id="0" />
        <mxCell id="1" parent="0" />
        <mxCell id="FKWDBho2pV0SHM1W49gS-1" value="sys dia" style="rounded=0;whiteSpace=wrap;html=1;" vertex="1" parent="1">
          <mxGeometry x="350" y="380" width="120" height="60" as="geometry" />
        </mxCell>
      </root>
    </mxGraphModel>
  </diagram>
</mxfile>
